# xmcd
#
# Track frame offsets: 
#        150
#        11472
#        29285
#        42330
#        57622
#        68317
#        81762
#        101010
#        111890
#        129870
#        146830
#        165352
#        182612
#        200412
#        215700
#        236665
#        252020
#        265800
#
# Disc length: 3745 seconds
#
# Revision: 2
# Processed by: cddbd v1.5.1PL2 Copyright (c) Steve Scherf et al.
# Submitted via: ExactAudioCopy v0.95b4
#
DISCID=f40e9f12
DTITLE=Jessi Colter - An Outlaw... A Lady:  The Very Best Of Jessi Col
DTITLE=ter
DYEAR=2003
DGENRE=Country
TTITLE0=You Mean To Say
TTITLE1=Suspicious Minds - Waylon Jennings with Jessi Colter
TTITLE2=Under Your Spell Again - Waylon Jennings with Jessi Colter
TTITLE3=I'm Not Lisa
TTITLE4=What's Happened To Blue Eyes
TTITLE5=You Ain't Never Been Loved (Like I'm Gonna Love You)
TTITLE6=Storms Never Last
TTITLE7=It's Morning (And I Still Love You)
TTITLE8=Without You
TTITLE9=Here I Am
TTITLE10=I Belong To Him - featuring Waylon Jennings with Roy Orbison
TTITLE11=New Wine
TTITLE12=I Thought I Heard You Calling My Name
TTITLE13=You Hung The Moon (Didn't You Waylon?)
TTITLE14=Maybe You Should've Been Listening
TTITLE15=That's The Way A Cowboy Rocks and Roll
TTITLE16=Hold Back The Tears
TTITLE17=Wild Side OF Life/Wasn't God Who Made Honky Tonk Angels (Medl
TTITLE17=ey) - Waylon Jennings with Jessi Colter
EXTD=
EXTT0=
EXTT1=
EXTT2=
EXTT3=
EXTT4=
EXTT5=
EXTT6=
EXTT7=
EXTT8=
EXTT9=
EXTT10=
EXTT11=
EXTT12=
EXTT13=
EXTT14=
EXTT15=
EXTT16=
EXTT17=
PLAYORDER=
